<svg width="22" height="20" viewBox="0 0 22 20" xmlns="http://www.w3.org/2000/svg"><title>icon/heart</title><desc>Created with Sketch.</desc><path d="M6.12 1.221c-2.701 0-4.899 2.196-4.899 4.895 0 2.516 1.391 5.092 4.135 7.654 2.013 1.881 4.725 3.622 5.64 4.191.911-.579 3.61-2.344 5.654-4.197 2.816-2.553 4.128-4.983 4.128-7.648 0-2.699-2.198-4.895-4.899-4.895-1.826 0-3.489 1.007-4.339 2.627l-.541 1.031-.541-1.031c-.85-1.621-2.513-2.627-4.339-2.627zm4.884 18.172l-.317-.189c-.147-.087-3.624-2.168-6.165-4.541-3.001-2.803-4.523-5.678-4.523-8.547 0-3.372 2.745-6.116 6.12-6.116 1.941 0 3.734.91 4.88 2.428 1.146-1.518 2.939-2.428 4.88-2.428 3.374 0 6.12 2.744 6.12 6.116 0 3.034-1.439 5.752-4.529 8.553-2.57 2.329-6.007 4.442-6.152 4.531l-.314.193z" fill="#ED71F7"/></svg>