<svg height="24" width="24" xmlns="http://www.w3.org/2000/svg" xmlns:xlink="http://www.w3.org/1999/xlink"><mask id="a" fill="#fff"><path d="m0 .863h23.263v18.472h-23.263z" fill="#fff" fill-rule="evenodd"/></mask><g fill="#19c1dc" fill-rule="evenodd"><path d="m15.247 11.985c1.077 0 1.957.88 1.957 1.957 0 1.1-.88 1.98-1.957 1.98a1.966 1.966 0 0 1 -1.957-1.98c0-1.077.88-1.957 1.957-1.957m0-2.069a4.23 4.23 0 0 0 -4.224 4.224c0 1.632 2.832 8.957 4.224 8.957 1.276 0 4.224-7.2 4.224-8.957a4.224 4.224 0 0 0 -4.224-4.224"/><path d="m1.09 4.532h-.001zm-.035 14.803c-.202 0-.402-.058-.577-.173a1.049 1.049 0 0 1 -.478-.884v-13.835c0-.449.283-.849.705-.997l5.213-1.84c.254-.09.529-.08.773.028l4.505 1.948 5.381-2.616c.213-.1.454-.13.683-.078l5.173 1.13c.49.106.83.53.83 1.03v13.917a1.053 1.053 0 0 1 -1.377 1.005l-1.444-.49a.575.575 0 1 1 .371-1.091l1.338.455-.04-13.718-5.098-1.114-5.399 2.611a1.06 1.06 0 0 1 -.877.016l-4.505-1.949-5.08 1.82v13.622l4.66-2.053c.272-.121.585-.12.858.003l3.934 1.768a.575.575 0 0 1 -.472 1.051l-3.933-1.768-4.717 2.113a1.06 1.06 0 0 1 -.427.09z" mask="url(#a)" transform="translate(0 -.903)"/><path d="m6.288 13.443a.576.576 0 0 1 -.576-.576v-8.63a.576.576 0 1 1 1.152 0v8.63a.576.576 0 0 1 -.576.576m10.59-4.786a.576.576 0 0 1 -.576-.576v-4.916a.576.576 0 0 1 1.152 0v4.915a.576.576 0 0 1 -.576.576m-5.806 1.481a.576.576 0 0 1 -.576-.576v-3.809a.576.576 0 0 1 1.152 0v3.809a.576.576 0 0 1 -.576.576"/></g></svg>